Plot:

A law student becomes a lieutenant during World War II, is captured and asked to defend a black prisoner of war falsely accused of murder



Description:

Video

ID : 1
Format : AVC
Format/Info : Advanced Video Codec
Format profile : High@L4.1
Format settings, CABAC : Yes
Format settings, ReFrames : 5 frames
Codec ID : avc1
Codec ID/Info : Advanced Video Coding
Duration : 2h 4mn
Bit rate mode : Variable
Bit rate : 1 119 Kbps
Maximum bit rate : 9 228 Kbps
Width : 720 pixels
Height : 304 pixels
Display aspect ratio : 2.35:1
Frame rate mode : Constant
Frame rate : 23.976 fps
Color space : YUV
Chroma subsampling : 4:2:0
Bit depth : 8 bits
Scan type : Progressive
Bits/(Pixel*Frame) : 0.213
Stream size : 999 MiB (71%)
Writing library : x264 core 98 r1649 20cbe10

Audio

ID : 2
Format : AC-3
Format/Info : Audio Coding 3
Mode extension : CM (complete main)
Codec ID : ac-3
Duration : 2h 4mn
Bit rate mode : Constant
Bit rate : 448 Kbps
Channel(s) : 6 channels
Channel positions : Front: L C R, Side: L R, LFE
Sampling rate : 48.0 KHz
Bit depth : 16 bits
Stream size : 400 MiB (29%)
Title : Imported with GPAC 0.4.6-DEV (internal rev. 5)
Language : English
Encoded date : UTC 2010-11-13 23:28:45





================================== 
http://thepiratebay.org/user/hiest
==================================






Screens:
 
http://www.postimg.com/image/25000/24111.jpg